<svg width="276" height="262" viewBox="0 0 276 262" fill="none" xmlns="http://www.w3.org/2000/svg">
<path fill-rule="evenodd" clip-rule="evenodd" d="M34.5 124.076C15.4462 124.076 0 108.646 0 89.6107C0 70.5759 15.4462 55.1451 34.5 55.1451C53.5538 55.1451 69 70.5759 69 89.6107C69 108.646 53.5538 124.076 34.5 124.076ZM96.6 68.9313C77.5462 68.9313 62.1 53.5005 62.1 34.4657C62.1 15.4308 77.5462 0 96.6 0C115.654 0 131.1 15.4308 131.1 34.4657C131.1 53.5005 115.654 68.9313 96.6 68.9313ZM179.4 68.9313C160.346 68.9313 144.9 53.5005 144.9 34.4657C144.9 15.4308 160.346 0 179.4 0C198.454 0 213.9 15.4308 213.9 34.4657C213.9 53.5005 198.454 68.9313 179.4 68.9313ZM241.5 124.076C222.446 124.076 207 108.646 207 89.6107C207 70.5759 222.446 55.1451 241.5 55.1451C260.554 55.1451 276 70.5759 276 89.6107C276 108.646 260.554 124.076 241.5 124.076ZM211.692 163.505C229.77 181.565 251.988 201.555 247.71 229.679C243.708 243.603 233.634 257.665 215.556 261.663C205.482 263.593 173.328 255.597 139.104 255.597H136.62C102.396 255.597 70.242 263.731 60.168 261.663C42.09 257.665 32.016 243.741 28.014 229.679C23.874 201.693 46.092 181.703 64.17 163.643C76.314 149.581 86.388 137.587 98.394 123.525C104.88 116.08 112.884 108.636 122.544 105.327C124.062 104.776 125.58 104.362 127.098 104.086C130.686 103.397 134.412 103.397 138 103.397C141.588 103.397 145.314 103.397 148.764 103.948C150.282 104.224 151.8 104.638 153.318 105.189C162.978 108.498 171.12 115.942 177.468 123.387C189.612 137.449 199.686 149.443 211.692 163.505Z" fill="black"/>
</svg>
