<svg width="18" height="17" viewBox="0 0 18 17" fill="none" xmlns="http://www.w3.org/2000/svg">
<path d="M9.15417 12.2094C9.34306 12.2094 9.50243 12.1444 9.63229 12.0146C9.76215 11.8847 9.82708 11.7253 9.82708 11.5365C9.82708 11.3476 9.76215 11.1882 9.63229 11.0583C9.50243 10.9285 9.34306 10.8635 9.15417 10.8635C8.96528 10.8635 8.8059 10.9285 8.67604 11.0583C8.54618 11.1882 8.48125 11.3476 8.48125 11.5365C8.48125 11.7253 8.54618 11.8847 8.67604 12.0146C8.8059 12.1444 8.96528 12.2094 9.15417 12.2094ZM8.53438 9.62396H9.57917C9.57917 9.31701 9.61753 9.03663 9.69427 8.78281C9.77101 8.52899 10.0101 8.23681 10.4115 7.90625C10.7774 7.59931 11.0372 7.29826 11.1906 7.00313C11.3441 6.70799 11.4208 6.38333 11.4208 6.02917C11.4208 5.40347 11.2172 4.90174 10.8099 4.52396C10.4026 4.14618 9.8625 3.95729 9.18958 3.95729C8.61111 3.95729 8.10052 4.10191 7.65781 4.39115C7.2151 4.68038 6.8934 5.07882 6.69271 5.58646L7.63125 5.94063C7.76111 5.61007 7.9559 5.3533 8.21562 5.17031C8.47535 4.98733 8.78229 4.89583 9.13646 4.89583C9.53785 4.89583 9.8625 5.00503 10.1104 5.22344C10.3583 5.44184 10.4823 5.72222 10.4823 6.06458C10.4823 6.32431 10.4056 6.56927 10.2521 6.79948C10.0986 7.02969 9.87431 7.26875 9.57917 7.51667C9.225 7.82361 8.96233 8.1276 8.79115 8.42865C8.61997 8.72969 8.53438 9.12813 8.53438 9.62396ZM9.08333 15.1667C8.11528 15.1667 7.20035 14.9807 6.33854 14.6089C5.47674 14.237 4.72413 13.7293 4.08073 13.0859C3.43733 12.4425 2.92969 11.6899 2.55781 10.8281C2.18594 9.96632 2 9.05139 2 8.08333C2 7.10347 2.18594 6.18264 2.55781 5.32083C2.92969 4.45903 3.43733 3.70937 4.08073 3.07188C4.72413 2.43438 5.47674 1.92969 6.33854 1.55781C7.20035 1.18594 8.11528 1 9.08333 1C10.0632 1 10.984 1.18594 11.8458 1.55781C12.7076 1.92969 13.4573 2.43438 14.0948 3.07188C14.7323 3.70937 15.237 4.45903 15.6089 5.32083C15.9807 6.18264 16.1667 7.10347 16.1667 8.08333C16.1667 9.05139 15.9807 9.96632 15.6089 10.8281C15.237 11.6899 14.7323 12.4425 14.0948 13.0859C13.4573 13.7293 12.7076 14.237 11.8458 14.6089C10.984 14.9807 10.0632 15.1667 9.08333 15.1667ZM9.08333 14.1042C10.7597 14.1042 12.1823 13.5168 13.351 12.3422C14.5198 11.1675 15.1042 9.74792 15.1042 8.08333C15.1042 6.40694 14.5198 4.98438 13.351 3.81562C12.1823 2.64688 10.7597 2.0625 9.08333 2.0625C7.41875 2.0625 5.99913 2.64688 4.82448 3.81562C3.64983 4.98438 3.0625 6.40694 3.0625 8.08333C3.0625 9.74792 3.64983 11.1675 4.82448 12.3422C5.99913 13.5168 7.41875 14.1042 9.08333 14.1042Z" fill="black"/>
</svg>
