<svg width="18" height="18" viewBox="0 0 18 18" fill="none" xmlns="http://www.w3.org/2000/svg">
<g clip-path="url(#clip0_515_135)">
<path d="M9 9.75C9.41421 9.75 9.75 9.41421 9.75 9C9.75 8.58579 9.41421 8.25 9 8.25C8.58579 8.25 8.25 8.58579 8.25 9C8.25 9.41421 8.58579 9.75 9 9.75Z" fill="#231F20"/>
<path d="M12 9.75C12.4142 9.75 12.75 9.41421 12.75 9C12.75 8.58579 12.4142 8.25 12 8.25C11.5858 8.25 11.25 8.58579 11.25 9C11.25 9.41421 11.5858 9.75 12 9.75Z" fill="#231F20"/>
<path d="M6 9.75C6.41421 9.75 6.75 9.41421 6.75 9C6.75 8.58579 6.41421 8.25 6 8.25C5.58579 8.25 5.25 8.58579 5.25 9C5.25 9.41421 5.58579 9.75 6 9.75Z" fill="#231F20"/>
<path d="M14.3025 3.6975C13.0719 2.45888 11.4477 1.68841 9.70993 1.51893C7.97217 1.34945 6.22973 1.79158 4.78301 2.7691C3.33628 3.74662 2.27594 5.19826 1.78479 6.87376C1.29364 8.54926 1.40245 10.3436 2.09247 11.9475C2.16438 12.0966 2.18798 12.2644 2.15997 12.4275L1.49997 15.6C1.47454 15.7216 1.47973 15.8477 1.51508 15.9668C1.55042 16.0859 1.61482 16.1944 1.70247 16.2825C1.77432 16.3538 1.85987 16.4099 1.95397 16.4473C2.04806 16.4846 2.14875 16.5026 2.24997 16.5H2.39997L5.60997 15.855C5.77311 15.8354 5.93856 15.8587 6.08997 15.9225C7.69384 16.6125 9.48821 16.7213 11.1637 16.2302C12.8392 15.739 14.2909 14.6787 15.2684 13.232C16.2459 11.7852 16.688 10.0428 16.5185 8.30504C16.3491 6.56727 15.5786 4.94309 14.34 3.7125L14.3025 3.6975ZM14.925 9.9675C14.7783 10.863 14.4305 11.7136 13.9076 12.4552C13.3848 13.1968 12.7005 13.8102 11.9063 14.2491C11.1122 14.6881 10.2288 14.9412 9.32263 14.9894C8.4165 15.0376 7.51124 14.8797 6.67497 14.5275C6.37837 14.4013 6.05976 14.3351 5.73747 14.3325C5.59668 14.3335 5.4562 14.346 5.31747 14.37L3.20247 14.7975L3.62997 12.6825C3.71511 12.2245 3.66022 11.7514 3.47247 11.325C3.12026 10.4887 2.96232 9.58347 3.01054 8.67734C3.05875 7.7712 3.31186 6.88781 3.75082 6.09364C4.18979 5.29947 4.80316 4.6152 5.54479 4.09234C6.28642 3.56948 7.13698 3.22164 8.03247 3.075C8.97242 2.92074 9.9356 2.99248 10.8423 3.2843C11.7491 3.57611 12.5733 4.07961 13.2468 4.75315C13.9204 5.42669 14.4239 6.25092 14.7157 7.15764C15.0075 8.06437 15.0792 9.02755 14.925 9.9675Z" fill="#231F20"/>
</g>
<defs>
<clipPath id="clip0_515_135">
<rect width="18" height="18" fill="white"/>
</clipPath>
</defs>
</svg>
